<svg width="997" height="231" viewBox="0 0 997 231" fill="none" xmlns="http://www.w3.org/2000/svg">
<path d="M143.57 219.627L130.097 227.177L109.446 214.014L104.927 179.687C108.099 179.556 111.205 179.125 114.209 178.442L118.148 208.475L130.405 216.278L138.986 211.469L143.57 219.627Z" fill="#FFCA2D"/>
<path d="M105.357 228.31L90.0123 230.134L75.9771 210.075L84.9315 176.646C87.8415 177.703 90.8637 178.508 93.9889 179.023L86.1386 208.279L94.4755 220.189L104.253 219.019L105.357 228.31Z" fill="#FFCA2D"/>
<path d="M59.7806 210.047L69.259 212.713L66.7233 221.714L51.8554 217.532L46.5595 193.618L67.6403 166.158C69.942 168.263 72.4309 170.162 75.0789 171.818L56.6367 195.854L59.7806 210.047Z" fill="#FFCA2D"/>
<path d="M31.6072 187.396L39.3453 193.487L33.5628 200.841L21.4177 191.288L25.6844 167.169L55.6635 149.87C56.9922 152.714 58.5735 155.418 60.3793 157.944L34.1429 173.091L31.6072 187.396Z" fill="#FFCA2D"/>
<path d="M22.0633 143.451L14.2504 155.698L19.0691 164.287L10.91 168.862L3.34972 155.389L16.5147 134.741L50.8541 130.231C50.9851 133.403 51.4155 136.5 52.0985 139.503L22.0633 143.451Z" fill="#FFCA2D"/>
<path d="M53.8951 110.238C52.8378 113.138 52.0331 116.169 51.5185 119.294L22.2505 111.445L10.3487 119.771L11.5089 129.548L2.21764 130.652L0.393066 115.318L20.4633 101.275L53.8951 110.238Z" fill="#FFCA2D"/>
<path d="M64.384 92.9387C62.2788 95.2403 60.37 97.7383 58.7138 100.395L34.6763 81.9455L20.4914 85.0797L17.8247 94.5573L8.81416 92.0312L12.9966 77.1553L36.9126 71.8598L64.384 92.9387Z" fill="#FFCA2D"/>
<path d="M80.6742 80.9631C77.8298 82.2916 75.1257 83.8728 72.59 85.6785L57.4507 59.4445L43.1349 56.9184L37.0436 64.6557L29.6985 58.8644L39.2518 46.7298L63.3736 50.9867L80.6742 80.9631Z" fill="#FFCA2D"/>
<path d="M100.314 76.1541C97.1421 76.2851 94.0356 76.7155 91.0415 77.3985L87.0929 47.366L74.8449 39.5631L66.2554 44.3814L61.6799 36.2137L75.1443 28.6635L95.8041 41.8273L100.314 76.1541Z" fill="#FFCA2D"/>
<path d="M129.273 45.7661L120.309 79.1948C117.409 78.1376 114.377 77.333 111.252 76.8184L119.102 47.5625L110.775 35.6524L100.997 36.8219L99.893 27.5314L115.229 25.707L129.273 45.7661Z" fill="#FFCA2D"/>
<path d="M158.682 62.2232L137.601 89.6828C135.299 87.5778 132.81 85.6691 130.153 84.0131L148.604 59.9871L145.46 45.7942L135.982 43.1278L138.518 34.1274L153.386 38.3095L158.682 62.2232Z" fill="#FFCA2D"/>
<path d="M183.823 64.5528L179.557 88.6724L149.577 105.972C148.249 103.127 146.668 100.423 144.862 97.8973L171.107 82.7501L173.634 68.4449L165.896 62.3542L171.678 55.0004L183.823 64.5528Z" fill="#FFCA2D"/>
<path d="M201.891 100.451L188.726 121.1L154.387 125.61C154.256 122.438 153.825 119.341 153.142 116.338L183.178 112.39L190.991 100.143L186.172 91.554L194.331 86.979L201.891 100.451Z" fill="#FFCA2D"/>
<path d="M204.848 140.523L184.778 154.566L151.346 145.603C152.403 142.703 153.208 139.672 153.723 136.547L182.991 144.396L194.892 136.07L193.732 126.293L203.023 125.189L204.848 140.523Z" fill="#FFCA2D"/>
<path d="M196.427 163.81L192.244 178.686L168.328 183.972L140.866 162.893C142.972 160.591 144.871 158.103 146.527 155.446L170.565 173.895L184.75 170.761L187.416 161.284L196.427 163.81Z" fill="#FFCA2D"/>
<path d="M132.651 170.153L147.8 196.397L162.106 198.923L168.197 191.185L175.552 196.977L165.989 209.111L141.877 204.854L124.567 174.878L132.651 170.153Z" fill="#FFCA2D"/>
<path d="M437.861 58.9493L405.037 91.172V175.965L437.861 208.487H535.232V188.583H447.857L426.707 167.435V144.841H546.385V91.4708L513.86 58.9493H437.861ZM503.845 78.8439L524.985 99.9916L524.715 124.937H426.409L426.678 100.001L447.838 78.8439H503.845Z" fill="white"/>
<path d="M596.907 58.9493L579.893 73.61H577.772V58.9493H559.331V208.487H580.404L580.702 98.594L603.269 78.8439H653.463L672.849 97.9482L673.138 208.487H694.509V89.7069L663.739 58.9493H596.907Z" fill="white"/>
<path d="M730.321 58.9493H709.239V208.487H730.321V58.9493Z" fill="white"/>
<path d="M709.239 24.5578V50.0623H730.321V32.6641L722.715 24.5578H709.239Z" fill="white"/>
<path d="M965.666 58.9493H899.711L884.75 71.8461H882.629V10.6489L870.367 0.287109H860.959V208.487H882.629V99.4711L906.362 78.8439H955.959L974.775 97.9385L975.064 208.487H996.436V89.7069L965.666 58.9493Z" fill="white"/>
<path d="M791.292 183.117V78.9885H847.049L846.885 69.2051L834.575 58.7951H790.993V31.9508L777.642 20.6637H769.921V58.7951H740.616L740.269 78.9885H769.632V191.349L786.607 208.333H848.495V188.428H796.604L791.292 183.117Z" fill="white"/>
<path d="M276.78 180.158L395.552 97.6879L396.169 97.2542V72.2702L381.275 58.9493H254.725V78.7861H374.123V86.902L255.351 169.372L254.725 169.806V195.156L269.618 208.487H397.277V188.65L276.78 188.284V180.158Z" fill="white"/>
</svg>
