<?xml version="1.0" encoding="UTF-8"?>
<svg id="Layer_1" data-name="Layer 1" xmlns="http://www.w3.org/2000/svg" viewBox="0 0 1081 1080">
  <defs>
    <style>
      .cls-1 {
        fill: #ffc700;
      }
    </style>
  </defs>
  <path class="cls-1" d="M756.79,1024.5l-71.17,39.88-109.08-69.54-23.87-181.33c16.76-.69,33.16-2.97,49.03-6.57l20.81,158.64,64.75,41.21,45.32-25.4,24.22,43.1Z"/>
  <path class="cls-1" d="M554.94,1070.36l-81.06,9.64-74.14-105.96,47.3-176.58c15.37,5.58,31.34,9.83,47.84,12.55l-41.47,154.54,44.04,62.91,51.65-6.18,5.83,49.08Z"/>
  <path class="cls-1" d="M314.18,973.89l50.07,14.09-13.39,47.55-78.54-22.09-27.98-126.33,111.36-145.05c12.16,11.12,25.31,21.15,39.29,29.9l-97.42,126.96,16.61,74.97Z"/>
  <path class="cls-1" d="M165.36,854.24l40.88,32.17-30.55,38.84-64.15-50.46,22.54-127.41,158.36-91.38c7.02,15.02,15.37,29.31,24.91,42.65l-138.59,80.01-13.39,75.57Z"/>
  <path class="cls-1" d="M114.95,622.11l-41.27,64.69,25.45,45.37-43.1,24.17-39.94-71.17,69.54-109.07,181.39-23.82c.69,16.75,2.96,33.11,6.57,48.98l-158.66,20.86Z"/>
  <path class="cls-1" d="M283.1,446.66c-5.58,15.32-9.83,31.33-12.55,47.84l-154.6-41.46-62.87,43.98,6.13,51.65-49.08,5.83L.48,473.5l106.02-74.18,176.6,47.35Z"/>
  <path class="cls-1" d="M338.5,355.28c-11.12,12.16-21.2,25.35-29.95,39.39l-126.97-97.46-74.93,16.56-14.09,50.06-47.6-13.34,22.09-78.58,126.33-27.97,145.11,111.35Z"/>
  <path class="cls-1" d="M424.55,292.02c-15.03,7.02-29.31,15.37-42.7,24.91l-79.97-138.58-75.62-13.34-32.18,40.87-38.8-30.59,50.46-64.1,127.42,22.49,91.39,158.35Z"/>
  <path class="cls-1" d="M528.3,266.62c-16.76.69-33.17,2.97-48.98,6.57l-20.86-158.64-64.7-41.22-45.37,25.45-24.17-43.14,71.12-39.88,109.13,69.54,23.82,181.33Z"/>
  <path class="cls-1" d="M681.27,106.1l-47.35,176.58c-15.32-5.58-31.34-9.83-47.84-12.55l41.47-154.54-43.99-62.91-51.65,6.18-5.83-49.08L607.08.14l74.19,105.96Z"/>
  <path class="cls-1" d="M836.61,193.03l-111.36,145.05c-12.16-11.12-25.31-21.2-39.34-29.95l97.47-126.91-16.61-74.97-50.07-14.09,13.39-47.54,78.54,22.09,27.97,126.32Z"/>
  <path class="cls-1" d="M969.42,205.34l-22.54,127.41-158.36,91.38c-7.02-15.02-15.37-29.31-24.91-42.65l138.64-80.01,13.34-75.56-40.88-32.17,30.55-38.85,64.15,50.46Z"/>
  <path class="cls-1" d="M1064.86,394.97l-69.54,109.07-181.39,23.82c-.69-16.75-2.97-33.11-6.57-48.98l158.66-20.85,41.27-64.69-25.45-45.37,43.09-24.17,39.94,71.17Z"/>
  <path class="cls-1" d="M1080.48,606.64l-106.02,74.18-176.6-47.34c5.58-15.32,9.83-31.33,12.55-47.84l154.6,41.46,62.87-43.98-6.13-51.65,49.08-5.83,9.64,81Z"/>
  <path class="cls-1" d="M1036,729.65l-22.1,78.58-126.33,27.92-145.06-111.35c11.12-12.16,21.15-25.3,29.9-39.34l126.97,97.46,74.93-16.56,14.09-50.06,47.6,13.34Z"/>
  <path class="cls-1" d="M699.11,763.16l80.02,138.63,75.57,13.34,32.18-40.87,38.85,30.59-50.51,64.1-127.37-22.49-91.44-158.35,42.7-24.96Z"/>
</svg>